<?xml version="1.0" encoding="UTF-8" standalone="no"?>
<!DOCTYPE svg PUBLIC "-//W3C//DTD SVG 1.1//EN"
 "http://www.w3.org/Graphics/SVG/1.1/DTD/svg11.dtd">
<!-- Generated by graphviz version 2.36.0 (20140111.2315)
 -->
<!-- Title: controllers_diagram Pages: 1 -->
<svg width="576pt" height="499pt"
 viewBox="0.00 0.00 576.00 499.00" xmlns="http://www.w3.org/2000/svg" xmlns:xlink="http://www.w3.org/1999/xlink">
<g id="graph0" class="graph" transform="scale(1 1) rotate(0) translate(4 495)">
<title>controllers_diagram</title>
<polygon fill="white" stroke="none" points="-4,4 -4,-495 572,-495 572,4 -4,4"/>
<!-- _diagram_info -->
<g id="node1" class="node"><title>_diagram_info</title>
<text text-anchor="start" x="280" y="-207.6" font-family="Times,serif" font-size="13.00">Controllers diagram</text>
<text text-anchor="start" x="280" y="-193.6" font-family="Times,serif" font-size="13.00">Date: Mar 21 2015 &#45; 15:10</text>
<text text-anchor="start" x="280" y="-179.6" font-family="Times,serif" font-size="13.00">Migration version: 20150321073025</text>
<text text-anchor="start" x="280" y="-165.6" font-family="Times,serif" font-size="13.00">Generated by RailRoady 1.3.0</text>
<text text-anchor="start" x="280" y="-151.6" font-family="Times,serif" font-size="13.00">http://railroady.prestonlee.com</text>
</g>
<!-- SessionsController -->
<g id="node2" class="node"><title>SessionsController</title>
<path fill="none" stroke="black" d="M12,-192.5C12,-192.5 107,-192.5 107,-192.5 113,-192.5 119,-198.5 119,-204.5 119,-204.5 119,-303.5 119,-303.5 119,-309.5 113,-315.5 107,-315.5 107,-315.5 12,-315.5 12,-315.5 6,-315.5 0,-309.5 0,-303.5 0,-303.5 0,-204.5 0,-204.5 0,-198.5 6,-192.5 12,-192.5"/>
<text text-anchor="middle" x="59.5" y="-300.3" font-family="Times,serif" font-size="14.00">SessionsController</text>
<polyline fill="none" stroke="black" points="0,-292.5 119,-292.5 "/>
<text text-anchor="start" x="8" y="-277.3" font-family="Times,serif" font-size="14.00">create</text>
<text text-anchor="start" x="8" y="-262.3" font-family="Times,serif" font-size="14.00">destroy</text>
<text text-anchor="start" x="8" y="-247.3" font-family="Times,serif" font-size="14.00">new</text>
<polyline fill="none" stroke="black" points="0,-239.5 119,-239.5 "/>
<polyline fill="none" stroke="black" points="0,-215.5 119,-215.5 "/>
<text text-anchor="start" x="8" y="-200.3" font-family="Times,serif" font-size="14.00">_layout</text>
</g>
<!-- MicropostsController -->
<g id="node3" class="node"><title>MicropostsController</title>
<path fill="none" stroke="black" d="M284,-256.5C284,-256.5 394,-256.5 394,-256.5 400,-256.5 406,-262.5 406,-268.5 406,-268.5 406,-382.5 406,-382.5 406,-388.5 400,-394.5 394,-394.5 394,-394.5 284,-394.5 284,-394.5 278,-394.5 272,-388.5 272,-382.5 272,-382.5 272,-268.5 272,-268.5 272,-262.5 278,-256.5 284,-256.5"/>
<text text-anchor="middle" x="339" y="-379.3" font-family="Times,serif" font-size="14.00">MicropostsController</text>
<polyline fill="none" stroke="black" points="272,-371.5 406,-371.5 "/>
<text text-anchor="start" x="280" y="-356.3" font-family="Times,serif" font-size="14.00">create</text>
<text text-anchor="start" x="280" y="-341.3" font-family="Times,serif" font-size="14.00">destroy</text>
<polyline fill="none" stroke="black" points="272,-333.5 406,-333.5 "/>
<polyline fill="none" stroke="black" points="272,-309.5 406,-309.5 "/>
<text text-anchor="start" x="280" y="-294.3" font-family="Times,serif" font-size="14.00">_layout</text>
<text text-anchor="start" x="280" y="-279.3" font-family="Times,serif" font-size="14.00">correct_user</text>
<text text-anchor="start" x="280" y="-264.3" font-family="Times,serif" font-size="14.00">micropost_params</text>
</g>
<!-- StaticPagesController -->
<g id="node4" class="node"><title>StaticPagesController</title>
<path fill="none" stroke="black" d="M124,-352.5C124,-352.5 234,-352.5 234,-352.5 240,-352.5 246,-358.5 246,-364.5 246,-364.5 246,-478.5 246,-478.5 246,-484.5 240,-490.5 234,-490.5 234,-490.5 124,-490.5 124,-490.5 118,-490.5 112,-484.5 112,-478.5 112,-478.5 112,-364.5 112,-364.5 112,-358.5 118,-352.5 124,-352.5"/>
<text text-anchor="middle" x="179" y="-475.3" font-family="Times,serif" font-size="14.00">StaticPagesController</text>
<polyline fill="none" stroke="black" points="112,-467.5 246,-467.5 "/>
<text text-anchor="start" x="120" y="-452.3" font-family="Times,serif" font-size="14.00">about</text>
<text text-anchor="start" x="120" y="-437.3" font-family="Times,serif" font-size="14.00">contact</text>
<text text-anchor="start" x="120" y="-422.3" font-family="Times,serif" font-size="14.00">help</text>
<text text-anchor="start" x="120" y="-407.3" font-family="Times,serif" font-size="14.00">home</text>
<polyline fill="none" stroke="black" points="112,-399.5 246,-399.5 "/>
<polyline fill="none" stroke="black" points="112,-375.5 246,-375.5 "/>
<text text-anchor="start" x="120" y="-360.3" font-family="Times,serif" font-size="14.00">_layout</text>
</g>
<!-- ApplicationController -->
<g id="node5" class="node"><title>ApplicationController</title>
<path fill="none" stroke="black" d="M444,-256.5C444,-256.5 556,-256.5 556,-256.5 562,-256.5 568,-262.5 568,-268.5 568,-268.5 568,-338.5 568,-338.5 568,-344.5 562,-350.5 556,-350.5 556,-350.5 444,-350.5 444,-350.5 438,-350.5 432,-344.5 432,-338.5 432,-338.5 432,-268.5 432,-268.5 432,-262.5 438,-256.5 444,-256.5"/>
<text text-anchor="middle" x="500" y="-335.3" font-family="Times,serif" font-size="14.00">ApplicationController</text>
<polyline fill="none" stroke="black" points="432,-327.5 568,-327.5 "/>
<polyline fill="none" stroke="black" points="432,-303.5 568,-303.5 "/>
<polyline fill="none" stroke="black" points="432,-279.5 568,-279.5 "/>
<text text-anchor="start" x="440" y="-264.3" font-family="Times,serif" font-size="14.00">_layout</text>
</g>
<!-- RelationshipsController -->
<g id="node6" class="node"><title>RelationshipsController</title>
<path fill="none" stroke="black" d="M284,-0.5C284,-0.5 406,-0.5 406,-0.5 412,-0.5 418,-6.5 418,-12.5 418,-12.5 418,-96.5 418,-96.5 418,-102.5 412,-108.5 406,-108.5 406,-108.5 284,-108.5 284,-108.5 278,-108.5 272,-102.5 272,-96.5 272,-96.5 272,-12.5 272,-12.5 272,-6.5 278,-0.5 284,-0.5"/>
<text text-anchor="middle" x="345" y="-93.3" font-family="Times,serif" font-size="14.00">RelationshipsController</text>
<polyline fill="none" stroke="black" points="272,-85.5 418,-85.5 "/>
<text text-anchor="start" x="280" y="-70.3" font-family="Times,serif" font-size="14.00">create</text>
<text text-anchor="start" x="280" y="-55.3" font-family="Times,serif" font-size="14.00">destroy</text>
<polyline fill="none" stroke="black" points="272,-47.5 418,-47.5 "/>
<polyline fill="none" stroke="black" points="272,-23.5 418,-23.5 "/>
<text text-anchor="start" x="280" y="-8.3" font-family="Times,serif" font-size="14.00">_layout</text>
</g>
<!-- UsersController -->
<g id="node7" class="node"><title>UsersController</title>
<path fill="none" stroke="black" d="M156,-64.5C156,-64.5 235,-64.5 235,-64.5 241,-64.5 247,-70.5 247,-76.5 247,-76.5 247,-310.5 247,-310.5 247,-316.5 241,-322.5 235,-322.5 235,-322.5 156,-322.5 156,-322.5 150,-322.5 144,-316.5 144,-310.5 144,-310.5 144,-76.5 144,-76.5 144,-70.5 150,-64.5 156,-64.5"/>
<text text-anchor="middle" x="195.5" y="-307.3" font-family="Times,serif" font-size="14.00">UsersController</text>
<polyline fill="none" stroke="black" points="144,-299.5 247,-299.5 "/>
<text text-anchor="start" x="152" y="-284.3" font-family="Times,serif" font-size="14.00">create</text>
<text text-anchor="start" x="152" y="-269.3" font-family="Times,serif" font-size="14.00">destroy</text>
<text text-anchor="start" x="152" y="-254.3" font-family="Times,serif" font-size="14.00">edit</text>
<text text-anchor="start" x="152" y="-239.3" font-family="Times,serif" font-size="14.00">followers</text>
<text text-anchor="start" x="152" y="-224.3" font-family="Times,serif" font-size="14.00">following</text>
<text text-anchor="start" x="152" y="-209.3" font-family="Times,serif" font-size="14.00">index</text>
<text text-anchor="start" x="152" y="-194.3" font-family="Times,serif" font-size="14.00">new</text>
<text text-anchor="start" x="152" y="-179.3" font-family="Times,serif" font-size="14.00">show</text>
<text text-anchor="start" x="152" y="-164.3" font-family="Times,serif" font-size="14.00">update</text>
<polyline fill="none" stroke="black" points="144,-156.5 247,-156.5 "/>
<polyline fill="none" stroke="black" points="144,-132.5 247,-132.5 "/>
<text text-anchor="start" x="152" y="-117.3" font-family="Times,serif" font-size="14.00">_layout</text>
<text text-anchor="start" x="152" y="-102.3" font-family="Times,serif" font-size="14.00">admin_user</text>
<text text-anchor="start" x="152" y="-87.3" font-family="Times,serif" font-size="14.00">correct_user</text>
<text text-anchor="start" x="152" y="-72.3" font-family="Times,serif" font-size="14.00">user_params</text>
</g>
</g>
</svg>
