<?xml version="1.0" encoding="UTF-8" standalone="no"?>
<!DOCTYPE svg PUBLIC "-//W3C//DTD SVG 1.1//EN"
 "http://www.w3.org/Graphics/SVG/1.1/DTD/svg11.dtd">
<!-- Generated by graphviz version 2.36.0 (20140111.2315)
 -->
<!-- Title: models_diagram Pages: 1 -->
<svg width="465pt" height="174pt"
 viewBox="0.00 0.00 465.00 174.00" xmlns="http://www.w3.org/2000/svg" xmlns:xlink="http://www.w3.org/1999/xlink">
<g id="graph0" class="graph" transform="scale(1 1) rotate(0) translate(4 170)">
<title>models_diagram</title>
<polygon fill="white" stroke="none" points="-4,4 -4,-170 461,-170 461,4 -4,4"/>
<!-- _diagram_info -->
<g id="node1" class="node"><title>_diagram_info</title>
<text text-anchor="start" x="8" y="-151.6" font-family="Times,serif" font-size="13.00">Models diagram</text>
<text text-anchor="start" x="8" y="-137.6" font-family="Times,serif" font-size="13.00">Date: Mar 21 2015 &#45; 15:10</text>
<text text-anchor="start" x="8" y="-123.6" font-family="Times,serif" font-size="13.00">Migration version: 20150321073025</text>
<text text-anchor="start" x="8" y="-109.6" font-family="Times,serif" font-size="13.00">Generated by RailRoady 1.3.0</text>
<text text-anchor="start" x="8" y="-95.6" font-family="Times,serif" font-size="13.00">http://railroady.prestonlee.com</text>
</g>
<!-- Relationship -->
<g id="node2" class="node"><title>Relationship</title>
<ellipse fill="none" stroke="black" cx="242" cy="-18" rx="55.3682" ry="18"/>
<text text-anchor="middle" x="242" y="-14.3" font-family="Times,serif" font-size="14.00">Relationship</text>
</g>
<!-- Micropost -->
<g id="node3" class="node"><title>Micropost</title>
<ellipse fill="none" stroke="black" cx="389" cy="-18" rx="47.169" ry="18"/>
<text text-anchor="middle" x="389" y="-14.3" font-family="Times,serif" font-size="14.00">Micropost</text>
</g>
<!-- User -->
<g id="node4" class="node"><title>User</title>
<ellipse fill="none" stroke="black" cx="259" cy="-127" rx="26.949" ry="18"/>
<text text-anchor="middle" x="259" y="-123.3" font-family="Times,serif" font-size="14.00">User</text>
</g>
<!-- User&#45;&gt;Relationship -->
<g id="edge2" class="edge"><title>User&#45;&gt;Relationship</title>
<path fill="none" stroke="#567837" d="M248.767,-101.549C245.246,-91.9005 241.75,-80.6044 240,-70 238.842,-62.9838 239.797,-61.1082 240,-54 240.073,-51.4448 240.176,-48.7859 240.297,-46.1262"/>
<ellipse fill="none" stroke="#567837" cx="250.267" cy="-105.478" rx="4.00001" ry="4.00001"/>
<polygon fill="#567837" stroke="#567837" points="240.3,-46.0675 245.322,-36.3193 240.564,-41.0745 240.828,-36.0815 240.828,-36.0815 240.828,-36.0815 240.564,-41.0745 236.334,-35.8437 240.3,-46.0675 240.3,-46.0675"/>
</g>
<!-- User&#45;&gt;Relationship -->
<g id="edge4" class="edge"><title>User&#45;&gt;Relationship</title>
<path fill="none" stroke="#932dd3" d="M254.992,-100.772C252.396,-84.4341 249.016,-63.1608 246.355,-46.4078"/>
<ellipse fill="none" stroke="#932dd3" cx="255.641" cy="-104.858" rx="4.00001" ry="4.00001"/>
<polygon fill="#932dd3" stroke="#932dd3" points="246.294,-46.0249 249.169,-35.4426 245.509,-41.0868 244.725,-36.1487 244.725,-36.1487 244.725,-36.1487 245.509,-41.0868 240.28,-36.8549 246.294,-46.0249 246.294,-46.0249"/>
<text text-anchor="middle" x="307.5" y="-58.3" font-family="Times,serif" font-size="14.00">reverse_relationships</text>
</g>
<!-- User&#45;&gt;Micropost -->
<g id="edge1" class="edge"><title>User&#45;&gt;Micropost</title>
<path fill="none" stroke="#190173" d="M291.508,-116.462C315.762,-107.85 348.172,-92.9571 369,-70 375.155,-63.216 379.509,-54.3179 382.547,-45.8567"/>
<ellipse fill="none" stroke="#190173" cx="287.411" cy="-117.856" rx="4.00001" ry="4.00001"/>
<polygon fill="#190173" stroke="#190173" points="382.557,-45.8233 389.833,-37.6184 384.047,-41.0504 385.537,-36.2775 385.537,-36.2775 385.537,-36.2775 384.047,-41.0504 381.241,-34.9367 382.557,-45.8233 382.557,-45.8233"/>
</g>
<!-- User&#45;&gt;User -->
<g id="edge3" class="edge"><title>User&#45;&gt;User</title>
<path fill="none" stroke="#6b4edd" d="M295.12,-132.426C300.422,-131.571 304,-129.763 304,-127 304,-124.237 300.422,-122.429 295.12,-121.574"/>
<polygon fill="#6b4edd" stroke="#6b4edd" points="294.882,-132.438 284.66,-128.47 289.889,-132.701 284.896,-132.963 284.896,-132.963 284.896,-132.963 289.889,-132.701 285.132,-137.457 294.882,-132.438 294.882,-132.438"/>
<polygon fill="#6b4edd" stroke="#6b4edd" points="294.882,-121.562 285.132,-116.543 289.889,-121.299 284.896,-121.037 284.896,-121.037 284.896,-121.037 289.889,-121.299 284.66,-125.53 294.882,-121.562 294.882,-121.562"/>
<text text-anchor="middle" x="345.5" y="-123.3" font-family="Times,serif" font-size="14.00">followed_users</text>
</g>
<!-- User&#45;&gt;User -->
<g id="edge5" class="edge"><title>User&#45;&gt;User</title>
<path fill="none" stroke="#bfaf52" d="M293.383,-136.774C332.242,-141.704 387,-138.446 387,-127 387,-115.554 332.242,-112.296 293.383,-117.226"/>
<polygon fill="#bfaf52" stroke="#bfaf52" points="293.283,-136.758 284.073,-130.807 288.34,-136.007 283.397,-135.256 283.397,-135.256 283.397,-135.256 288.34,-136.007 282.72,-139.705 293.283,-136.758 293.283,-136.758"/>
<polygon fill="#bfaf52" stroke="#bfaf52" points="293.283,-117.242 282.72,-114.295 288.34,-117.993 283.397,-118.744 283.397,-118.744 283.397,-118.744 288.34,-117.993 284.073,-123.193 293.283,-117.242 293.283,-117.242"/>
<text text-anchor="middle" x="413" y="-123.3" font-family="Times,serif" font-size="14.00">followers</text>
</g>
</g>
</svg>
