<?xml version="1.0" encoding="UTF-8" standalone="no"?>
<!DOCTYPE svg PUBLIC "-//W3C//DTD SVG 1.1//EN"
 "http://www.w3.org/Graphics/SVG/1.1/DTD/svg11.dtd">
<!-- Generated by graphviz version 2.36.0 (20140111.2315)
 -->
<!-- Title: models_diagram Pages: 1 -->
<svg width="559pt" height="320pt"
 viewBox="0.00 0.00 559.00 320.00" xmlns="http://www.w3.org/2000/svg" xmlns:xlink="http://www.w3.org/1999/xlink">
<g id="graph0" class="graph" transform="scale(1 1) rotate(0) translate(4 316)">
<title>models_diagram</title>
<polygon fill="white" stroke="none" points="-4,4 -4,-316 555,-316 555,4 -4,4"/>
<!-- _diagram_info -->
<g id="node1" class="node"><title>_diagram_info</title>
<text text-anchor="start" x="8" y="-260.6" font-family="Times,serif" font-size="13.00">Models diagram</text>
<text text-anchor="start" x="8" y="-246.6" font-family="Times,serif" font-size="13.00">Date: Mar 21 2015 &#45; 15:09</text>
<text text-anchor="start" x="8" y="-232.6" font-family="Times,serif" font-size="13.00">Migration version: 20150321073025</text>
<text text-anchor="start" x="8" y="-218.6" font-family="Times,serif" font-size="13.00">Generated by RailRoady 1.3.0</text>
<text text-anchor="start" x="8" y="-204.6" font-family="Times,serif" font-size="13.00">http://railroady.prestonlee.com</text>
</g>
<!-- Relationship -->
<g id="node2" class="node"><title>Relationship</title>
<path fill="none" stroke="black" d="M226.5,-1C226.5,-1 333.5,-1 333.5,-1 339.5,-1 345.5,-7 345.5,-13 345.5,-13 345.5,-95 345.5,-95 345.5,-101 339.5,-107 333.5,-107 333.5,-107 226.5,-107 226.5,-107 220.5,-107 214.5,-101 214.5,-95 214.5,-95 214.5,-13 214.5,-13 214.5,-7 220.5,-1 226.5,-1"/>
<text text-anchor="middle" x="280" y="-91.8" font-family="Times,serif" font-size="14.00">Relationship</text>
<polyline fill="none" stroke="black" points="214.5,-84 345.5,-84 "/>
<text text-anchor="start" x="222.5" y="-68.8" font-family="Times,serif" font-size="14.00">id :integer</text>
<text text-anchor="start" x="222.5" y="-53.8" font-family="Times,serif" font-size="14.00">follower_id :integer</text>
<text text-anchor="start" x="222.5" y="-38.8" font-family="Times,serif" font-size="14.00">followed_id :integer</text>
<text text-anchor="start" x="222.5" y="-23.8" font-family="Times,serif" font-size="14.00">created_at :datetime</text>
<text text-anchor="start" x="222.5" y="-8.8" font-family="Times,serif" font-size="14.00">updated_at :datetime</text>
</g>
<!-- Micropost -->
<g id="node3" class="node"><title>Micropost</title>
<path fill="none" stroke="black" d="M382.5,-1C382.5,-1 489.5,-1 489.5,-1 495.5,-1 501.5,-7 501.5,-13 501.5,-13 501.5,-95 501.5,-95 501.5,-101 495.5,-107 489.5,-107 489.5,-107 382.5,-107 382.5,-107 376.5,-107 370.5,-101 370.5,-95 370.5,-95 370.5,-13 370.5,-13 370.5,-7 376.5,-1 382.5,-1"/>
<text text-anchor="middle" x="436" y="-91.8" font-family="Times,serif" font-size="14.00">Micropost</text>
<polyline fill="none" stroke="black" points="370.5,-84 501.5,-84 "/>
<text text-anchor="start" x="378.5" y="-68.8" font-family="Times,serif" font-size="14.00">id :integer</text>
<text text-anchor="start" x="378.5" y="-53.8" font-family="Times,serif" font-size="14.00">content :string</text>
<text text-anchor="start" x="378.5" y="-38.8" font-family="Times,serif" font-size="14.00">user_id :integer</text>
<text text-anchor="start" x="378.5" y="-23.8" font-family="Times,serif" font-size="14.00">created_at :datetime</text>
<text text-anchor="start" x="378.5" y="-8.8" font-family="Times,serif" font-size="14.00">updated_at :datetime</text>
</g>
<!-- User -->
<g id="node4" class="node"><title>User</title>
<path fill="none" stroke="black" d="M244,-160.5C244,-160.5 368,-160.5 368,-160.5 374,-160.5 380,-166.5 380,-172.5 380,-172.5 380,-299.5 380,-299.5 380,-305.5 374,-311.5 368,-311.5 368,-311.5 244,-311.5 244,-311.5 238,-311.5 232,-305.5 232,-299.5 232,-299.5 232,-172.5 232,-172.5 232,-166.5 238,-160.5 244,-160.5"/>
<text text-anchor="middle" x="306" y="-296.3" font-family="Times,serif" font-size="14.00">User</text>
<polyline fill="none" stroke="black" points="232,-288.5 380,-288.5 "/>
<text text-anchor="start" x="240" y="-273.3" font-family="Times,serif" font-size="14.00">id :integer</text>
<text text-anchor="start" x="240" y="-258.3" font-family="Times,serif" font-size="14.00">name :string</text>
<text text-anchor="start" x="240" y="-243.3" font-family="Times,serif" font-size="14.00">email :string</text>
<text text-anchor="start" x="240" y="-228.3" font-family="Times,serif" font-size="14.00">created_at :datetime</text>
<text text-anchor="start" x="240" y="-213.3" font-family="Times,serif" font-size="14.00">updated_at :datetime</text>
<text text-anchor="start" x="240" y="-198.3" font-family="Times,serif" font-size="14.00">password_digest :string</text>
<text text-anchor="start" x="240" y="-183.3" font-family="Times,serif" font-size="14.00">remember_token :string</text>
<text text-anchor="start" x="240" y="-168.3" font-family="Times,serif" font-size="14.00">admin :boolean</text>
</g>
<!-- User&#45;&gt;Relationship -->
<g id="edge2" class="edge"><title>User&#45;&gt;Relationship</title>
<path fill="none" stroke="#51086c" d="M288.553,-152.201C287.996,-148.761 287.475,-145.35 287,-142 285.865,-134 284.9,-125.559 284.082,-117.207"/>
<ellipse fill="none" stroke="#51086c" cx="289.247" cy="-156.323" rx="4.00001" ry="4.00001"/>
<polygon fill="#51086c" stroke="#51086c" points="284.068,-117.057 287.637,-106.689 283.612,-112.078 283.156,-107.099 283.156,-107.099 283.156,-107.099 283.612,-112.078 278.675,-107.509 284.068,-117.057 284.068,-117.057"/>
</g>
<!-- User&#45;&gt;Relationship -->
<g id="edge4" class="edge"><title>User&#45;&gt;Relationship</title>
<path fill="none" stroke="#45cc76" d="M294.08,-152.474C292.377,-140.688 290.65,-128.729 289.015,-117.415"/>
<ellipse fill="none" stroke="#45cc76" cx="294.665" cy="-156.529" rx="4.00001" ry="4.00001"/>
<polygon fill="#45cc76" stroke="#45cc76" points="288.974,-117.126 291.998,-106.585 288.259,-112.177 287.544,-107.228 287.544,-107.228 287.544,-107.228 288.259,-112.177 283.09,-107.872 288.974,-117.126 288.974,-117.126"/>
<text text-anchor="middle" x="349.5" y="-130.3" font-family="Times,serif" font-size="14.00">reverse_relationships</text>
</g>
<!-- User&#45;&gt;Micropost -->
<g id="edge1" class="edge"><title>User&#45;&gt;Micropost</title>
<path fill="none" stroke="#165753" d="M385.673,-173.623C395.146,-163.82 403.939,-153.19 411,-142 415.865,-134.289 419.809,-125.605 423,-116.785"/>
<ellipse fill="none" stroke="#165753" cx="382.847" cy="-176.462" rx="4.00002" ry="4.00002"/>
<polygon fill="#165753" stroke="#165753" points="423.03,-116.693 430.446,-108.615 424.602,-111.947 426.174,-107.2 426.174,-107.2 426.174,-107.2 424.602,-111.947 421.902,-105.786 423.03,-116.693 423.03,-116.693"/>
</g>
<!-- User&#45;&gt;User -->
<g id="edge3" class="edge"><title>User&#45;&gt;User</title>
<path fill="none" stroke="#0305d2" d="M390.228,-242.514C395.093,-240.947 398,-238.776 398,-236 398,-233.224 395.093,-231.053 390.228,-229.486"/>
<polygon fill="#0305d2" stroke="#0305d2" points="390.148,-242.531 379.438,-240.177 385.254,-243.556 380.36,-244.581 380.36,-244.581 380.36,-244.581 385.254,-243.556 381.283,-248.986 390.148,-242.531 390.148,-242.531"/>
<polygon fill="#0305d2" stroke="#0305d2" points="390.148,-229.469 381.283,-223.014 385.254,-228.444 380.36,-227.419 380.36,-227.419 380.36,-227.419 385.254,-228.444 379.438,-231.823 390.148,-229.469 390.148,-229.469"/>
<text text-anchor="middle" x="439.5" y="-232.3" font-family="Times,serif" font-size="14.00">followed_users</text>
</g>
<!-- User&#45;&gt;User -->
<g id="edge5" class="edge"><title>User&#45;&gt;User</title>
<path fill="none" stroke="#d5fbc0" d="M390.288,-254.735C435.841,-256.815 481,-250.57 481,-236 481,-221.43 435.841,-215.185 390.288,-217.265"/>
<polygon fill="#d5fbc0" stroke="#d5fbc0" points="390.255,-254.734 380.538,-249.651 385.263,-254.438 380.272,-254.143 380.272,-254.143 380.272,-254.143 385.263,-254.438 380.006,-258.635 390.255,-254.734 390.255,-254.734"/>
<polygon fill="#d5fbc0" stroke="#d5fbc0" points="390.255,-217.266 380.006,-213.365 385.263,-217.562 380.272,-217.857 380.272,-217.857 380.272,-217.857 385.263,-217.562 380.538,-222.349 390.255,-217.266 390.255,-217.266"/>
<text text-anchor="middle" x="507" y="-232.3" font-family="Times,serif" font-size="14.00">followers</text>
</g>
</g>
</svg>
